<mxfile host="65bd71144e">
    <diagram id="yunPdTtNdeQIG4Yw1sNy" name="CBS">
        <mxGraphModel dx="167" dy="109" grid="1" gridSize="10" guides="1" tooltips="1" connect="1" arrows="1" fold="1" page="1" pageScale="1" pageWidth="827" pageHeight="1169" math="0" shadow="0">
            <root>
                <mxCell id="0"/>
                <mxCell id="1" parent="0"/>
                <mxCell id="3" value="Start CBS" style="ellipse;whiteSpace=wrap;html=1;fontFamily=Helvetica;fontSize=12;fontColor=default;align=center;strokeColor=#3333FF;fillColor=default;" parent="1" vertex="1">
                    <mxGeometry x="140" y="50" width="160" height="30" as="geometry"/>
                </mxCell>
                <mxCell id="4" value="Read agents and map with dimension and obstacles" style="shape=rectangle;rounded=1;whiteSpace=wrap;strokeColor=#3333FF;" parent="1" vertex="1">
                    <mxGeometry x="120" y="100" width="200" height="40" as="geometry"/>
                </mxCell>
                <mxCell id="5" value="Initialize environment based on the agents and map" style="shape=rectangle;rounded=1;whiteSpace=wrap;strokeColor=#3333FF;" parent="1" vertex="1">
                    <mxGeometry x="120" y="160" width="200" height="40" as="geometry"/>
                </mxCell>
                <mxCell id="6" value="Initialize CBS &#10;(Conflict-Based Search)" style="shape=rectangle;rounded=1;whiteSpace=wrap;strokeColor=#3333FF;" parent="1" vertex="1">
                    <mxGeometry x="120" y="220" width="200" height="40" as="geometry"/>
                </mxCell>
                <mxCell id="7" value="Execute search" style="shape=process;whiteSpace=wrap;backgroundOutline=1;fontFamily=Helvetica;fontSize=12;fontColor=default;align=center;strokeColor=#3333FF;fillColor=default;rounded=1;fontStyle=1;strokeWidth=2;" parent="1" vertex="1">
                    <mxGeometry x="120" y="280" width="200" height="40" as="geometry"/>
                </mxCell>
                <mxCell id="71" value="" style="edgeStyle=none;html=0;fontFamily=Helvetica;fontSize=12;fontColor=default;startArrow=none;startFill=0;endArrow=classic;endFill=1;startSize=5;endSize=5;strokeColor=#3333FF;" parent="1" source="9" target="70" edge="1">
                    <mxGeometry relative="1" as="geometry"/>
                </mxCell>
                <mxCell id="73" value="" style="edgeStyle=none;html=0;fontFamily=Helvetica;fontSize=12;fontColor=default;startArrow=none;startFill=0;endArrow=classic;endFill=1;startSize=5;endSize=5;strokeColor=#3333FF;" parent="1" source="9" target="72" edge="1">
                    <mxGeometry relative="1" as="geometry"/>
                </mxCell>
                <mxCell id="9" value="Save the solution (plan) andÂ cost" style="shape=rectangle;rounded=1;whiteSpace=wrap;strokeColor=#3333FF;" parent="1" vertex="1">
                    <mxGeometry x="120" y="340" width="200" height="40" as="geometry"/>
                </mxCell>
                <mxCell id="12" value="" style="edgeStyle=elbowEdgeStyle;elbow=horizontal;endSize=5;startSize=5;strokeColor=#3333FF;" parent="1" source="3" target="4" edge="1">
                    <mxGeometry relative="1" as="geometry"/>
                </mxCell>
                <mxCell id="13" value="" style="edgeStyle=elbowEdgeStyle;elbow=horizontal;endSize=5;startSize=5;strokeColor=#3333FF;" parent="1" source="4" target="5" edge="1">
                    <mxGeometry relative="1" as="geometry"/>
                </mxCell>
                <mxCell id="14" value="" style="edgeStyle=elbowEdgeStyle;elbow=horizontal;endSize=5;startSize=5;strokeColor=#3333FF;" parent="1" source="5" target="6" edge="1">
                    <mxGeometry relative="1" as="geometry"/>
                </mxCell>
                <mxCell id="15" value="" style="edgeStyle=elbowEdgeStyle;elbow=horizontal;endSize=5;startSize=5;strokeColor=#3333FF;" parent="1" source="6" target="7" edge="1">
                    <mxGeometry relative="1" as="geometry"/>
                </mxCell>
                <mxCell id="16" value="" style="edgeStyle=elbowEdgeStyle;elbow=horizontal;endSize=5;startSize=5;strokeColor=#3333FF;" parent="1" source="7" edge="1">
                    <mxGeometry relative="1" as="geometry">
                        <mxPoint x="220" y="340" as="targetPoint"/>
                    </mxGeometry>
                </mxCell>
                <mxCell id="28" value="" style="edgeStyle=none;html=0;fontSize=14;startSize=5;endSize=5;fontColor=default;strokeColor=#3333FF;" parent="1" source="25" target="27" edge="1">
                    <mxGeometry relative="1" as="geometry"/>
                </mxCell>
                <mxCell id="25" value="Execute search based on A* path finding algorithm" style="shape=process;whiteSpace=wrap;backgroundOutline=1;fontFamily=Helvetica;fontSize=12;fontColor=default;align=center;strokeColor=#3333FF;fillColor=default;rounded=1;fontStyle=1;strokeWidth=2;" parent="1" vertex="1">
                    <mxGeometry x="500" y="40" width="200" height="40" as="geometry"/>
                </mxCell>
                <mxCell id="30" value="" style="edgeStyle=none;html=0;fontSize=14;startSize=5;endSize=5;entryX=0.5;entryY=0;entryDx=0;entryDy=0;fontColor=default;strokeColor=#3333FF;" parent="1" source="27" target="31" edge="1">
                    <mxGeometry relative="1" as="geometry"/>
                </mxCell>
                <mxCell id="27" value="Compute the solution (paths) and its cost using A* algorithm" style="shape=rectangle;rounded=1;whiteSpace=wrap;fontColor=default;strokeColor=#3333FF;" parent="1" vertex="1">
                    <mxGeometry x="500" y="110" width="200" height="40" as="geometry"/>
                </mxCell>
                <mxCell id="32" value="" style="edgeStyle=none;html=0;fontSize=14;startSize=5;endSize=5;startArrow=classic;startFill=1;endArrow=none;endFill=0;fontColor=default;strokeColor=#3333FF;" parent="1" source="29" target="31" edge="1">
                    <mxGeometry relative="1" as="geometry"/>
                </mxCell>
                <mxCell id="29" value="Find the node P in HighLevelNode with the minimum cost" style="shape=rectangle;rounded=1;whiteSpace=wrap;fontColor=default;strokeColor=#3333FF;" parent="1" vertex="1">
                    <mxGeometry x="500" y="229" width="200" height="40" as="geometry"/>
                </mxCell>
                <mxCell id="31" value="Contain open_set?" style="rhombus;whiteSpace=wrap;html=1;rounded=1;shadow=0;glass=0;sketch=0;strokeWidth=1;fontSize=12;gradientColor=none;fontColor=default;strokeColor=#3333FF;" parent="1" vertex="1">
                    <mxGeometry x="500" y="169" width="200" height="40" as="geometry"/>
                </mxCell>
                <mxCell id="43" style="edgeStyle=none;html=0;entryX=0.5;entryY=0;entryDx=0;entryDy=0;fontSize=14;fontColor=default;startArrow=none;startFill=0;endArrow=classic;endFill=1;startSize=5;endSize=5;strokeColor=#3333FF;" parent="1" source="33" target="40" edge="1">
                    <mxGeometry relative="1" as="geometry"/>
                </mxCell>
                <mxCell id="33" value="Get the first conflict from the minimal-cost solution" style="shape=rectangle;rounded=1;whiteSpace=wrap;fontColor=default;strokeColor=#3333FF;" parent="1" vertex="1">
                    <mxGeometry x="500" y="350" width="200" height="40" as="geometry"/>
                </mxCell>
                <mxCell id="34" value="Yes" style="text;html=1;align=center;verticalAlign=middle;resizable=0;points=[];autosize=1;strokeColor=none;fillColor=none;fontSize=12;fontColor=default;" parent="1" vertex="1">
                    <mxGeometry x="605" y="203" width="40" height="30" as="geometry"/>
                </mxCell>
                <mxCell id="35" value="No" style="text;html=1;align=center;verticalAlign=middle;resizable=0;points=[];autosize=1;strokeColor=none;fillColor=none;fontSize=12;fontColor=default;" parent="1" vertex="1">
                    <mxGeometry x="475" y="159" width="40" height="30" as="geometry"/>
                </mxCell>
                <mxCell id="39" value="" style="edgeStyle=none;html=0;fontSize=14;startSize=5;endSize=5;entryX=0.499;entryY=0.038;entryDx=0;entryDy=0;exitX=0.5;exitY=1;exitDx=0;exitDy=0;fontColor=default;strokeColor=#3333FF;entryPerimeter=0;" parent="1" source="29" target="74" edge="1">
                    <mxGeometry relative="1" as="geometry">
                        <mxPoint x="610" y="159" as="sourcePoint"/>
                        <mxPoint x="610" y="179" as="targetPoint"/>
                    </mxGeometry>
                </mxCell>
                <mxCell id="46" value="" style="edgeStyle=none;html=0;fontSize=14;fontColor=default;startArrow=none;startFill=0;endArrow=classic;endFill=1;startSize=5;endSize=5;strokeColor=#FF0000;" parent="1" source="40" target="45" edge="1">
                    <mxGeometry relative="1" as="geometry"/>
                </mxCell>
                <mxCell id="40" value="Contain conflict?" style="rhombus;whiteSpace=wrap;html=1;rounded=1;shadow=0;glass=0;sketch=0;strokeWidth=1;fontSize=12;gradientColor=none;fontColor=default;strokeColor=#FF0000;" parent="1" vertex="1">
                    <mxGeometry x="500" y="410" width="200" height="40" as="geometry"/>
                </mxCell>
                <mxCell id="44" value="No, solution found" style="text;html=1;align=center;verticalAlign=middle;resizable=0;points=[];autosize=1;strokeColor=none;fillColor=none;fontSize=12;fontColor=default;" parent="1" vertex="1">
                    <mxGeometry x="415" y="400" width="120" height="30" as="geometry"/>
                </mxCell>
                <mxCell id="49" value="" style="edgeStyle=none;html=0;fontSize=12;fontColor=default;startArrow=none;startFill=0;endArrow=classic;endFill=1;startSize=5;endSize=5;strokeColor=#FF0000;" parent="1" source="45" edge="1">
                    <mxGeometry relative="1" as="geometry">
                        <mxPoint x="600" y="529.9999999999999" as="targetPoint"/>
                    </mxGeometry>
                </mxCell>
                <mxCell id="45" value="Create constraints from the conflict and add them to the environment" style="shape=rectangle;rounded=1;whiteSpace=wrap;fontColor=default;strokeColor=#FF0000;" parent="1" vertex="1">
                    <mxGeometry x="500" y="470" width="200" height="40" as="geometry"/>
                </mxCell>
                <mxCell id="47" value="No solution, return {}" style="ellipse;whiteSpace=wrap;html=1;fontFamily=Helvetica;fontSize=12;fontColor=default;align=center;strokeColor=#3333FF;fillColor=default;" parent="1" vertex="1">
                    <mxGeometry x="365" y="229" width="120" height="40" as="geometry"/>
                </mxCell>
                <mxCell id="53" style="endArrow=classic;html=0;fontFamily=Helvetica;fontSize=12;fontColor=default;align=center;startFill=0;startSize=5;endFill=1;endSize=5;strokeColor=#3333FF;edgeStyle=none;exitX=0.5;exitY=1;exitDx=0;exitDy=0;" parent="1" source="50" edge="1">
                    <mxGeometry relative="1" as="geometry">
                        <mxPoint x="600" y="90" as="targetPoint"/>
                        <Array as="points">
                            <mxPoint x="600" y="590"/>
                            <mxPoint x="740" y="590"/>
                            <mxPoint x="740" y="90"/>
                        </Array>
                    </mxGeometry>
                </mxCell>
                <mxCell id="63" value="Search the solution from the open_set again" style="edgeLabel;html=1;align=center;verticalAlign=middle;resizable=0;points=[];fontSize=12;fontColor=default;rotation=-90;" parent="53" vertex="1" connectable="0">
                    <mxGeometry x="-0.0457" y="-3" relative="1" as="geometry">
                        <mxPoint x="-3" y="-25" as="offset"/>
                    </mxGeometry>
                </mxCell>
                <mxCell id="50" value="Compute the solution (paths) based on all constraints" style="shape=rectangle;rounded=1;whiteSpace=wrap;fontColor=default;strokeColor=#FF0000;" parent="1" vertex="1">
                    <mxGeometry x="500" y="530" width="200" height="40" as="geometry"/>
                </mxCell>
                <mxCell id="52" value="" style="endArrow=classic;html=1;fontSize=12;fontColor=default;startSize=5;endSize=5;entryX=0.5;entryY=0;entryDx=0;entryDy=0;exitX=0.024;exitY=0.499;exitDx=0;exitDy=0;exitPerimeter=0;strokeColor=#3333FF;" parent="1" source="31" target="47" edge="1">
                    <mxGeometry width="50" height="50" relative="1" as="geometry">
                        <mxPoint x="475" y="299" as="sourcePoint"/>
                        <mxPoint x="525" y="249" as="targetPoint"/>
                        <Array as="points">
                            <mxPoint x="425" y="189"/>
                        </Array>
                    </mxGeometry>
                </mxCell>
                <mxCell id="55" value="Yes, process conflict" style="text;html=1;align=center;verticalAlign=middle;resizable=0;points=[];autosize=1;strokeColor=none;fillColor=none;fontSize=12;fontColor=default;" parent="1" vertex="1">
                    <mxGeometry x="600" y="444" width="130" height="30" as="geometry"/>
                </mxCell>
                <mxCell id="66" value="" style="edgeStyle=none;html=0;fontSize=12;fontColor=default;startArrow=none;startFill=0;endArrow=classic;endFill=1;startSize=5;endSize=5;strokeColor=#3333FF;" parent="1" source="57" target="60" edge="1">
                    <mxGeometry relative="1" as="geometry"/>
                </mxCell>
                <mxCell id="57" value="Generate the plan based on the solution" style="shape=rectangle;rounded=1;whiteSpace=wrap;fontColor=default;strokeColor=#3333FF;" parent="1" vertex="1">
                    <mxGeometry x="365" y="470" width="120" height="40" as="geometry"/>
                </mxCell>
                <mxCell id="58" value="" style="endArrow=classic;html=1;fontSize=12;fontColor=default;startSize=5;endSize=5;entryX=0.5;entryY=0;entryDx=0;entryDy=0;exitX=0.023;exitY=0.504;exitDx=0;exitDy=0;exitPerimeter=0;strokeColor=#3333FF;" parent="1" source="40" target="57" edge="1">
                    <mxGeometry width="50" height="50" relative="1" as="geometry">
                        <mxPoint x="517.96" y="260.75" as="sourcePoint"/>
                        <mxPoint x="435" y="299.9999999999999" as="targetPoint"/>
                        <Array as="points">
                            <mxPoint x="425" y="430"/>
                        </Array>
                    </mxGeometry>
                </mxCell>
                <mxCell id="60" value="Return the plan" style="ellipse;whiteSpace=wrap;html=1;fontFamily=Helvetica;fontSize=12;fontColor=default;align=center;strokeColor=#3333FF;fillColor=default;" parent="1" vertex="1">
                    <mxGeometry x="365" y="530" width="120" height="40" as="geometry"/>
                </mxCell>
                <mxCell id="69" value="" style="edgeStyle=none;html=0;fontSize=12;fontColor=#3333FF;startArrow=none;startFill=0;endArrow=classic;endFill=1;startSize=5;endSize=5;strokeColor=#3333FF;" parent="1" source="68" target="4" edge="1">
                    <mxGeometry relative="1" as="geometry"/>
                </mxCell>
                <mxCell id="68" value="input.yaml" style="shape=parallelogram;perimeter=parallelogramPerimeter;whiteSpace=wrap;fixedSize=1;rounded=1;shadow=0;glass=0;sketch=0;strokeWidth=1;fontSize=12;fontColor=default;gradientColor=none;strokeColor=#3333FF;" parent="1" vertex="1">
                    <mxGeometry y="100" width="100" height="40" as="geometry"/>
                </mxCell>
                <mxCell id="70" value="output.yaml" style="shape=parallelogram;perimeter=parallelogramPerimeter;whiteSpace=wrap;fixedSize=1;rounded=1;shadow=0;glass=0;sketch=0;strokeWidth=1;fontSize=12;fontColor=default;gradientColor=none;strokeColor=#3333FF;" parent="1" vertex="1">
                    <mxGeometry y="340" width="100" height="40" as="geometry"/>
                </mxCell>
                <mxCell id="72" value="Finish" style="ellipse;whiteSpace=wrap;html=1;fontFamily=Helvetica;fontSize=12;fontColor=default;align=center;strokeColor=#3333FF;fillColor=default;" parent="1" vertex="1">
                    <mxGeometry x="140" y="400" width="160" height="30" as="geometry"/>
                </mxCell>
                <mxCell id="74" value="Remove the node P from open_set and add to close_set" style="shape=rectangle;rounded=1;whiteSpace=wrap;fontColor=default;strokeColor=#3333FF;" parent="1" vertex="1">
                    <mxGeometry x="500" y="289" width="200" height="40" as="geometry"/>
                </mxCell>
                <mxCell id="78" value="" style="edgeStyle=none;html=0;fontSize=14;startSize=5;endSize=5;entryX=0.5;entryY=0;entryDx=0;entryDy=0;exitX=0.5;exitY=1;exitDx=0;exitDy=0;fontColor=default;strokeColor=#3333FF;" parent="1" target="33" edge="1">
                    <mxGeometry relative="1" as="geometry">
                        <mxPoint x="599.87" y="329" as="sourcePoint"/>
                        <mxPoint x="599.67" y="350.52" as="targetPoint"/>
                    </mxGeometry>
                </mxCell>
            </root>
        </mxGraphModel>
    </diagram>
</mxfile>